<?xml version="1.0" standalone="no"?>
<!DOCTYPE svg PUBLIC "-//W3C//DTD SVG 20010904//EN"
 "http://www.w3.org/TR/2001/REC-SVG-20010904/DTD/svg10.dtd">
<svg version="1.0" xmlns="http://www.w3.org/2000/svg"
 width="555.000000pt" height="201.000000pt" viewBox="0 0 555.000000 201.000000"
 preserveAspectRatio="xMidYMid meet">
<metadata>
Created by potrace 1.16, written by Peter Selinger 2001-2019
</metadata>
<g transform="translate(0.000000,201.000000) scale(0.100000,-0.100000)"
fill="#000000" stroke="none">
<path d="M1634 1238 c0 -26 -17 -89 -43 -158 -24 -63 -46 -127 -48 -142 -3
-16 -9 -28 -13 -28 -4 0 -10 -10 -13 -22 -3 -13 -12 -44 -20 -70 -12 -38 -12
-48 -2 -48 7 0 15 9 18 21 3 12 9 19 14 16 9 -5 35 18 27 25 -7 8 28 11 144
12 l112 1 0 28 c0 15 -4 27 -9 27 -5 0 -11 15 -14 33 -4 30 -36 126 -57 172
-5 11 -14 38 -21 60 -7 22 -16 45 -20 50 -3 6 -9 22 -13 38 -4 17 -13 27 -24
27 -14 0 -18 -9 -18 -42z m77 -186 c18 -48 36 -89 40 -92 4 -3 10 -17 14 -32
8 -31 -3 -36 -86 -37 -31 -1 -72 -7 -91 -16 l-36 -14 8 32 c4 18 15 52 25 77
20 52 51 137 59 162 10 34 34 6 67 -80z"/>
<path d="M2392 1018 c2 -169 7 -262 13 -261 6 2 11 100 13 263 3 231 1 260
-13 260 -14 0 -15 -29 -13 -262z"/>
<path d="M4020 1273 c-1 -5 -1 -120 -1 -258 0 -216 2 -250 16 -253 13 -3 15
29 15 257 0 225 -2 261 -15 261 -8 0 -15 -3 -15 -7z"/>
<path d="M4210 1275 c0 -3 7 -17 16 -31 14 -20 17 -53 16 -192 -1 -92 2 -173
7 -180 15 -24 22 34 20 165 -1 68 2 127 5 130 3 4 6 -1 6 -10 0 -9 4 -17 8
-17 5 0 19 -20 32 -45 13 -25 27 -45 32 -45 25 0 13 36 -36 106 -31 44 -60 89
-66 102 -8 19 -40 32 -40 17z"/>
<path d="M4720 1264 c0 -8 11 -19 25 -24 l25 -10 0 -233 0 -233 63 -2 c100 -3
147 12 183 61 18 23 35 53 39 67 4 14 13 28 19 32 14 9 11 197 -4 212 -5 5
-10 16 -10 24 0 20 -59 92 -75 92 -7 0 -15 5 -17 12 -3 8 -44 12 -126 14 -103
3 -122 1 -122 -12z m267 -56 c43 -45 76 -147 71 -215 -6 -65 -45 -142 -88
-170 -42 -29 -154 -33 -164 -7 -3 9 -6 100 -6 204 0 104 3 195 6 204 5 13 22
16 78 16 68 0 74 -2 103 -32z"/>
</g>
</svg>
